<svg height="75" width="75" xmlns="http://www.w3.org/2000/svg"><path d="M57.417 25.421H45.063a7.003 7.003 0 002.732-5.549v-6.551a7.021 7.021 0 00-7.02-7.02h-6.553a7.02 7.02 0 00-7.02 7.02v6.551a6.997 6.997 0 002.732 5.549H17.583a4.902 4.902 0 00-4.902 4.902v.982a4.902 4.902 0 004.902 4.902h8.764v11.219l-.014.025-3.604 8.695c-2.389-.73-4.982.436-5.957 2.787l-.377.908a4.903 4.903 0 002.652 6.404l4.088 1.693.012.008.906.375a4.906 4.906 0 006.406-2.652l5.154-12.439h3.771l5.154 12.439a4.904 4.904 0 006.406 2.652l.906-.375c.004-.002.006-.006.012-.008l4.088-1.693a4.902 4.902 0 002.652-6.404l-.377-.908c-.975-2.352-3.57-3.518-5.957-2.787l-3.604-8.695c-.004-.01-.01-.018-.014-.025V36.208h8.764a4.902 4.902 0 004.902-4.902v-.982a4.899 4.899 0 00-4.899-4.903z" fill="#EA7628"/><path d="M48.653 38.455v-2.246h8.764c2.49 0 4.525-1.865 4.838-4.27-.312-2.406-2.348-4.27-4.838-4.27H45.063v-2.248a7.003 7.003 0 002.732-5.549v-4.305a7.02 7.02 0 00-7.02-7.018h-6.553a7.02 7.02 0 00-7.02 7.018v4.305a6.997 6.997 0 002.732 5.549v2.248H17.583c-2.49 0-4.525 1.863-4.84 4.27.314 2.404 2.35 4.27 4.84 4.27h8.764v13.465l-.014.025-3.604 8.697c-2.389-.73-4.982.434-5.957 2.787l-.377.908a4.88 4.88 0 00-.229.758 4.885 4.885 0 002.881 3.398l4.088 1.693.012.008.906.375a4.906 4.906 0 006.406-2.652l5.154-12.439h3.771l5.154 12.439a4.904 4.904 0 006.406 2.652l.906-.375c.004-.002.006-.006.012-.008l4.088-1.693a4.884 4.884 0 002.879-3.398 5.098 5.098 0 00-.227-.758l-.377-.908c-.975-2.354-3.57-3.518-5.957-2.787l-3.604-8.697c-.004-.01-.01-.018-.014-.025V38.455z" fill="#A0490E"/><path d="M37.499 8.55h-3.275a7.02 7.02 0 00-7.02 7.018v4.305a6.997 6.997 0 002.732 5.549v2.248H17.583c-2.49 0-4.525 1.863-4.84 4.27.314 2.404 2.35 4.27 4.84 4.27h8.764v13.465l-.014.025-3.604 8.697c-2.389-.73-4.982.434-5.957 2.787l-.377.908a4.88 4.88 0 00-.229.758 4.885 4.885 0 002.881 3.398l4.088 1.693.012.008.906.375a4.906 4.906 0 006.406-2.652l5.154-12.439h1.885V8.55z" fill="#C6621E"/><path d="M33.509 56.998l-2.062 1-.344-.709h.001l-.361-.74-.296-.609-.001.001v-.001l-.747.364-.601.292v.001l-.708.345-.346-.71h.001l-.657-1.348-1.349.656-.71.346-1.002-2.059-.797.388-.313.758 1.421 2.918 2.058-1.002 1.002 2.059 2.056-1.002 1 2.055 2.573-1.249.476-1.148zm18.274-2.025l-.313-.758-.797-.388-1.002 2.059-.71-.346-1.349-.656-.657 1.348.001.001-.346.709-.71-.345v-.001l-.775-.376-.573-.28v.001l-.001-.001-.433.89-.223.459-.344.708-2.059-1-.295.607.476 1.148 2.571 1.25 1-2.056 2.058 1.001 1.002-2.058 2.058 1.002zm4.931-25.847l1.616-1.619-2.083-2.086H55.06l-.467.467 1.618 1.619-1.079 1.08-.539.539v.001l.29.29 1.327 1.327-1.213 1.214-.404.405.29.29 1.327 1.327-1.617 1.62.609.608h.902l2.227-2.229-1.617-1.617 1.617-1.619zm-40.047-1.619l1.619 1.619-1.619 1.617 1.619 1.619-1.619 1.617 2.229 2.229h.902l.609-.609-1.619-1.619.559-.557.656-.655.404-.405-.29-.29-.769-.771-.001.001-.559-.559.559-.557.656-.656.404-.404v-.001l-.353-.353-.706-.707h-.001l-.559-.559 1.619-1.619-.467-.467h-1.187z" fill="#EAE8C3"/><circle cx="37.5" cy="39.091" fill="#EF678B" r="1.833"/><path d="M37.499 38.591c-.775 0-1.436.486-1.701 1.168a1.828 1.828 0 003.404 0 1.831 1.831 0 00-1.703-1.168z" fill="#D84875"/><circle cx="37.5" cy="45.755" fill="#EF678B" r="1.833"/><path d="M37.499 45.255c-.775 0-1.436.484-1.701 1.166a1.826 1.826 0 003.404 0 1.83 1.83 0 00-1.703-1.166z" fill="#D84875"/><path fill="#1BC1A9" d="M37.499 30.781l-5.801-3.147v7.965l5.801-3.146 5.803 3.146v-7.965z"/><path d="M31.698 35.599l5.59-3.033-5.59-3.031zm6.012-3.033l5.592 3.033v-6.064z" fill="#109BAD"/><path d="M32.964 15.021a.703.703 0 111.404 0m6.264 0a.703.703 0 111.404 0m.652 3.393a5.188 5.188 0 01-5.189 5.188 5.188 5.188 0 01-5.188-5.188" fill="none" stroke="#EAE8C3" stroke-linecap="square" stroke-miterlimit="10" stroke-width="1.5"/></svg>