<?xml version="1.0" ?><!DOCTYPE svg  PUBLIC '-//W3C//DTD SVG 1.1//EN'  'http://www.w3.org/Graphics/SVG/1.1/DTD/svg11.dtd'><svg enable-background="new 0 0 75 75" height="75px" id="Layer_1" version="1.1" viewBox="0 0 75 75" width="75px" xml:space="preserve" xmlns="http://www.w3.org/2000/svg" xmlns:xlink="http://www.w3.org/1999/xlink"><g><path d="M57.417,25.421H45.063c1.658-1.283,2.732-3.289,2.732-5.549v-6.551c0-3.877-3.145-7.02-7.02-7.02h-6.553   c-3.877,0-7.02,3.143-7.02,7.02v6.551c0,2.26,1.072,4.266,2.732,5.549H17.583c-2.707,0-4.902,2.195-4.902,4.902v0.982   c0,2.707,2.195,4.902,4.902,4.902h8.764v11.219c-0.004,0.008-0.01,0.016-0.014,0.025l-3.604,8.695   c-2.389-0.73-4.982,0.436-5.957,2.787l-0.377,0.908c-1.035,2.5,0.152,5.369,2.652,6.404l4.088,1.693   c0.004,0.002,0.008,0.006,0.012,0.008l0.906,0.375c2.5,1.035,5.369-0.152,6.406-2.652l5.154-12.439h3.771l5.154,12.439   c1.037,2.5,3.904,3.688,6.406,2.652l0.906-0.375c0.004-0.002,0.006-0.006,0.012-0.008l4.088-1.693   c2.5-1.035,3.688-3.904,2.652-6.404l-0.377-0.908c-0.975-2.352-3.57-3.518-5.957-2.787l-3.604-8.695   c-0.004-0.01-0.01-0.018-0.014-0.025V36.208h8.764c2.707,0,4.902-2.195,4.902-4.902v-0.982   C62.319,27.617,60.124,25.421,57.417,25.421z" fill="#EA7628"/><path d="M48.653,38.455v-2.246h8.764c2.49,0,4.525-1.865,4.838-4.27c-0.312-2.406-2.348-4.27-4.838-4.27H45.063   v-2.248c1.658-1.283,2.732-3.289,2.732-5.549v-4.305c0-3.875-3.145-7.018-7.02-7.018h-6.553c-3.877,0-7.02,3.143-7.02,7.018v4.305   c0,2.26,1.072,4.266,2.732,5.549v2.248H17.583c-2.49,0-4.525,1.863-4.84,4.27c0.314,2.404,2.35,4.27,4.84,4.27h8.764v2.246v8.973   v2.246c-0.004,0.008-0.01,0.016-0.014,0.025l-3.604,8.697c-2.389-0.73-4.982,0.434-5.957,2.787l-0.377,0.908   c-0.104,0.248-0.168,0.504-0.229,0.758c0.354,1.477,1.371,2.773,2.881,3.398l4.088,1.693c0.004,0.002,0.008,0.006,0.012,0.008   l0.906,0.375c2.5,1.035,5.369-0.152,6.406-2.652l5.154-12.439h3.771l5.154,12.439c1.037,2.5,3.904,3.688,6.406,2.652l0.906-0.375   c0.004-0.002,0.006-0.006,0.012-0.008l4.088-1.693c1.508-0.625,2.527-1.922,2.879-3.398c-0.061-0.254-0.125-0.51-0.227-0.758   l-0.377-0.908c-0.975-2.354-3.57-3.518-5.957-2.787l-3.604-8.697c-0.004-0.01-0.01-0.018-0.014-0.025v-2.246V38.455z" fill="#A0490E"/><path d="M37.499,8.55h-3.275c-3.877,0-7.02,3.143-7.02,7.018v4.305c0,2.26,1.072,4.266,2.732,5.549v2.248H17.583   c-2.49,0-4.525,1.863-4.84,4.27c0.314,2.404,2.35,4.27,4.84,4.27h8.764v2.246v8.973v2.246c-0.004,0.008-0.01,0.016-0.014,0.025   l-3.604,8.697c-2.389-0.73-4.982,0.434-5.957,2.787l-0.377,0.908c-0.104,0.248-0.168,0.504-0.229,0.758   c0.354,1.477,1.371,2.773,2.881,3.398l4.088,1.693c0.004,0.002,0.008,0.006,0.012,0.008l0.906,0.375   c2.5,1.035,5.369-0.152,6.406-2.652l5.154-12.439h1.885V8.55z" fill="#C6621E"/><g><polygon fill="#EAE8C3" points="33.509,56.998 31.447,57.998 31.103,57.289 31.104,57.289 30.743,56.549 30.447,55.94     30.446,55.941 30.446,55.94 29.699,56.304 29.098,56.596 29.098,56.597 28.39,56.942 28.044,56.232 28.045,56.232 27.388,54.884     26.039,55.54 25.329,55.886 24.327,53.827 23.53,54.215 23.217,54.973 24.638,57.891 26.696,56.889 27.698,58.948 29.754,57.946     30.754,60.001 33.327,58.752 33.803,57.604   "/><polygon fill="#EAE8C3" points="51.783,54.973 51.47,54.215 50.673,53.827 49.671,55.886 48.961,55.54 47.612,54.884     46.955,56.232 46.956,56.233 46.61,56.942 45.9,56.597 45.9,56.596 45.125,56.22 44.552,55.94 44.552,55.941 44.551,55.94     44.118,56.83 43.895,57.289 43.551,57.997 41.492,56.997 41.197,57.604 41.673,58.752 44.244,60.002 45.244,57.946 47.302,58.947     48.304,56.889 50.362,57.891   "/></g><g><polygon fill="#EAE8C3" points="56.714,29.126 58.33,27.507 56.247,25.421 55.06,25.421 54.593,25.888 56.211,27.507     55.132,28.587 54.593,29.126 54.593,29.127 54.883,29.417 56.21,30.744 54.997,31.958 54.593,32.363 54.593,32.363 54.883,32.653     56.21,33.98 54.593,35.6 55.202,36.208 56.104,36.208 58.331,33.979 56.714,32.362 58.331,30.743   "/><polygon fill="#EAE8C3" points="16.667,27.507 18.286,29.126 16.667,30.743 18.286,32.362 16.667,33.979 18.896,36.208     19.798,36.208 20.407,35.599 18.788,33.98 19.347,33.423 19.347,33.423 20.003,32.768 20.407,32.363 20.407,32.363 20.117,32.073     19.348,31.302 19.347,31.303 18.788,30.744 19.347,30.187 19.347,30.187 20.003,29.531 20.407,29.127 20.407,29.126     20.054,28.773 19.348,28.066 19.347,28.066 18.788,27.507 20.407,25.888 19.94,25.421 18.753,25.421   "/></g><g><g><circle cx="37.5" cy="39.091" fill="#EF678B" r="1.833"/><path d="M37.499,38.591c-0.775,0-1.436,0.486-1.701,1.168c0.266,0.68,0.926,1.164,1.701,1.164     c0.777,0,1.436-0.484,1.703-1.164C38.935,39.078,38.276,38.591,37.499,38.591z" fill="#D84875"/></g><g><circle cx="37.5" cy="45.755" fill="#EF678B" r="1.833"/><path d="M37.499,45.255c-0.775,0-1.436,0.484-1.701,1.166c0.266,0.682,0.926,1.166,1.701,1.166     c0.777,0,1.436-0.484,1.703-1.166C38.935,45.74,38.276,45.255,37.499,45.255z" fill="#D84875"/></g></g><g><polygon fill="#1BC1A9" points="37.499,30.781 31.698,27.634 31.698,35.599 37.499,32.453 43.302,35.599 43.302,27.634   "/><g><polygon fill="#109BAD" points="31.698,35.599 37.288,32.566 31.698,29.535    "/><polygon fill="#109BAD" points="37.71,32.566 43.302,35.599 43.302,29.535    "/></g></g><g><path d="M32.964,15.021    c0-0.387,0.314-0.703,0.701-0.703s0.703,0.316,0.703,0.703" fill="none" stroke="#EAE8C3" stroke-linecap="square" stroke-miterlimit="10" stroke-width="1.5"/><path d="M40.632,15.021    c0-0.387,0.314-0.703,0.703-0.703c0.387,0,0.701,0.316,0.701,0.703" fill="none" stroke="#EAE8C3" stroke-linecap="square" stroke-miterlimit="10" stroke-width="1.5"/></g><path d="M42.688,18.414   c0,2.865-2.322,5.188-5.189,5.188c-2.865,0-5.188-2.322-5.188-5.188" fill="none" stroke="#EAE8C3" stroke-linecap="square" stroke-miterlimit="10" stroke-width="1.5"/></g></svg>